<svg version="1.1" id="Layer_1" xmlns="http://www.w3.org/2000/svg" xmlns:xlink="http://www.w3.org/1999/xlink" x="0px" y="0px"
	 width="100%" viewBox="0 0 726 726" enable-background="new 0 0 726 726" xml:space="preserve">

<path fill="#1A1A1A" opacity="1.000000" stroke="none" 
	d="
M672.985596,424.449402 
	C672.416565,423.673767 671.583069,422.484985 671.354248,421.189453 
	C666.823730,395.533203 654.816650,374.351501 633.990662,358.401947 
	C633.489807,358.018402 633.062134,357.539398 632.368958,356.887238 
	C643.057007,343.795105 650.568726,329.195923 653.316040,312.682953 
	C657.767517,285.926941 658.587524,259.018127 647.448792,233.627518 
	C629.819031,193.441055 597.327454,174.516556 554.425537,173.062057 
	C528.143494,172.171005 501.807098,172.885300 475.495087,172.878723 
	C474.351990,172.878433 473.208862,172.878677 471.648224,172.878677 
	C469.763733,161.070953 467.917328,149.442825 466.050720,137.817947 
	C461.725708,110.882179 457.390839,83.947990 452.996826,56.356289 
	C452.950500,55.520977 452.967377,55.342525 452.984283,55.164078 
	C454.813446,55.109058 456.642639,55.006153 458.471802,55.005939 
	C527.969727,54.997749 597.467651,54.998981 666.965576,54.998955 
	C668.778564,54.998955 670.591492,54.998955 673.002625,54.998955 
	C673.002625,178.140198 673.002625,301.063416 672.985596,424.449402 
z"/>
<path fill="#1A1A1A" opacity="1.000000" stroke="none" 
	d="
M254.147522,56.675198 
	C254.147522,74.632980 254.147522,92.590767 254.147522,111.100281 
	C267.506165,111.100281 280.392883,111.100281 293.884399,111.100281 
	C290.559662,132.025879 287.335846,152.316513 284.061340,172.925934 
	C204.813828,172.925934 125.877586,172.925934 46.266159,172.903305 
	C45.590988,172.880676 45.117107,172.786423 45.117107,172.786423 
	C45.117107,133.678314 45.117107,94.570213 45.117107,55.013878 
	C114.598335,55.013878 183.845490,55.013878 253.602997,55.468864 
	C254.124756,56.174301 254.136139,56.424751 254.147522,56.675198 
z"/>
<path fill="#1B1B1B" opacity="1.000000" stroke="none" 
	d="
M322.890533,672.920776 
	C322.890533,654.985474 322.890533,637.050110 322.890533,618.624695 
	C307.231750,618.624695 291.831573,618.624695 276.003540,618.624695 
	C278.559967,602.498779 281.033173,586.919189 283.497375,571.338196 
	C284.095276,567.557739 284.474548,563.727661 285.357452,560.016296 
	C285.630524,558.868286 287.236328,558.037292 288.747986,557.540894 
	C291.138031,558.346252 293.011719,558.954834 294.885895,558.956482 
	C353.246979,559.006653 411.608063,558.997559 469.969177,558.997559 
	C472.645538,575.216492 475.329437,591.434265 477.992096,607.655457 
	C478.551300,611.062073 479.032288,614.481567 479.671539,618.702026 
	C464.080658,618.702026 448.873474,618.702026 432.938965,618.897095 
	C432.315582,619.722046 432.419556,620.351929 432.523499,620.981812 
	C432.617584,638.013245 432.711639,655.044678 432.814819,672.728638 
	C432.823944,673.381165 432.835144,673.814392 432.835144,673.814392 
	C432.835144,673.814392 432.395264,673.896973 432.081451,673.705933 
	C431.428040,673.336365 431.179413,673.444397 431.021759,673.838989 
	C395.359192,673.884827 359.696625,673.930664 323.536865,673.682556 
	C323.039673,673.388611 322.890533,672.920776 322.890533,672.920776 
M469.406158,563.480164 
	C469.406158,563.480164 469.519257,563.409668 469.406158,563.480164 
z"/>
<path fill="#1B1B1B" opacity="1.000000" stroke="none" 
	d="
M45.037163,557.578857 
	C104.282700,557.117798 163.520233,557.117798 223.088760,557.117798 
	C219.819244,577.701538 216.615433,597.871521 213.327316,618.572327 
	C197.303833,618.572327 181.429657,618.572327 165.085510,618.572327 
	C165.085510,636.744995 165.085510,654.351746 165.053650,672.667847 
	C164.981873,673.550354 164.941925,673.723450 164.901978,673.896545 
	C125.123146,673.896545 85.344322,673.896545 45.029171,673.896545 
	C45.029171,635.182739 45.029171,596.611328 45.037163,557.578857 
z"/>
<path fill="#1B1B1B" opacity="1.000000" stroke="none" 
	d="
M590.125671,673.116333 
	C590.265991,661.646973 590.433228,650.177795 590.536255,638.708069 
	C590.594360,632.239075 590.546692,625.769104 590.546692,618.823669 
	C574.437683,618.823669 558.689514,618.823669 542.458618,618.823669 
	C539.169983,598.141113 535.943787,577.850830 532.632385,557.024780 
	C545.721680,557.024780 558.349243,557.085388 570.976013,557.010315 
	C589.136292,556.902344 606.310608,552.644287 622.128662,543.731018 
	C651.869507,526.972473 667.782349,500.971954 672.563477,467.354797 
	C672.920898,535.936401 672.920898,604.665161 672.920898,673.924316 
	C645.570129,673.924316 618.344482,673.924316 590.738892,673.659790 
	C590.358948,673.395264 590.125671,673.116333 590.125671,673.116333 
z"/>
<path fill="#1A1A1A" opacity="1.000000" stroke="none" 
	d="
M44.994942,228.461121 
	C60.813072,227.991959 76.628868,227.991959 92.788742,227.991959 
	C92.788742,319.203003 92.788742,410.398010 92.788742,502.110321 
	C77.164680,502.110321 61.551537,502.110321 45.475494,502.037415 
	C45.005936,410.953064 44.999271,319.941681 44.994942,228.461121 
z"/>
<path fill="#070707" opacity="1.000000" stroke="none" 
	d="
M254.584183,56.519241 
	C254.136139,56.424751 254.124756,56.174301 254.066559,55.550720 
	C255.345535,55.117626 256.671326,55.005299 257.997131,55.005215 
	C322.684753,55.001057 387.372406,55.006557 452.522156,55.087532 
	C452.967377,55.342525 452.950500,55.520977 452.928772,55.968246 
	C388.452423,56.235371 323.980988,56.232792 259.509521,56.237473 
	C258.013306,56.237583 256.517059,56.319515 254.584183,56.519241 
z"/>

<path fill="#0F0F0F" opacity="1.000000" stroke="none" 
	d="
M431.261169,673.906738 
	C431.179413,673.444397 431.428040,673.336365 431.864563,673.650879 
	C431.961517,673.786743 431.500610,673.974426 431.261169,673.906738 
z"/>
<path fill="#1A1A1A" opacity="1.000000" stroke="none" 
	d="
M443.932129,394.016388 
	C448.957733,425.411713 453.983704,456.806946 459.008484,488.202393 
	C459.718170,492.636505 460.421844,497.071594 461.175995,501.805664 
	C405.727631,501.805664 350.485138,501.805664 294.564728,501.805664 
	C300.080231,467.073151 305.574738,432.472900 311.525085,397.341370 
	C313.817780,395.821869 315.640076,394.009369 317.493713,393.976807 
	C331.317078,393.733978 345.146698,393.824768 358.974304,393.846619 
	C387.293579,393.891388 415.612854,393.958496 443.932129,394.016388 
z"/>
<path fill="#1B1B1B" opacity="1.000000" stroke="none" 
	d="
M274.918732,228.988464 
	C272.216919,246.691757 269.566498,264.403076 266.798279,282.095978 
	C264.234070,298.484985 261.543945,314.854279 258.506592,331.639709 
	C258.190399,332.388458 258.276978,332.729736 258.363525,333.071014 
	C258.313934,333.817474 258.264343,334.563934 257.850159,335.795654 
	C257.313690,336.574829 257.141846,336.868744 256.970032,337.162659 
	C254.489029,337.275177 252.008118,337.483612 249.527023,337.485504 
	C220.067352,337.508209 190.607681,337.500092 161.147995,337.500092 
	C159.325226,337.500092 157.502457,337.500122 155.320557,337.500122 
	C155.320557,300.935822 155.320557,264.615662 155.320557,227.871979 
	C194.621613,227.871979 233.851791,227.871979 273.636475,228.165314 
	C274.371277,228.720764 274.613861,228.897369 274.918732,228.988464 
z"/>
<path fill="#1B1B1B" opacity="1.000000" stroke="none" 
	d="
M481.990173,228.065521 
	C505.290161,228.062134 528.616211,227.370728 551.882690,228.252548 
	C574.293091,229.101913 590.632202,244.838013 593.031738,267.161530 
	C594.143250,277.501892 594.110352,288.161224 592.996887,298.503754 
	C590.724121,319.614288 575.539124,335.191559 554.504028,336.664398 
	C535.822998,337.972382 516.977905,336.938812 497.638763,336.938812 
	C492.043762,301.453217 486.402161,265.672180 481.044891,229.358612 
	C481.549530,228.572556 481.769836,228.319046 481.990173,228.065521 
z"/>
<path fill="#1B1B1B" opacity="1.000000" stroke="none" 
	d="
M321.123901,336.007721 
	C324.561401,313.837128 327.978851,291.663391 331.443756,269.497101 
	C333.596375,255.726105 335.820892,241.966354 338.068329,227.855209 
	C363.894897,227.855209 389.491974,227.855209 415.624786,228.111313 
	C416.430634,228.306580 416.700745,228.245743 416.970886,228.184906 
	C418.473480,236.056168 420.167511,243.896545 421.443909,251.804321 
	C425.812958,278.871826 430.035339,305.962982 433.917053,333.696960 
	C431.554260,334.898895 429.589417,335.923279 427.621704,335.928802 
	C392.122620,336.028290 356.623260,336.004883 321.123901,336.007721 
z"/>
<path fill="#1B1B1B" opacity="1.000000" stroke="none" 
	d="
M564.085205,392.536469 
	C591.948730,392.752045 610.589539,411.027924 610.955994,438.743896 
	C611.063660,446.887634 611.333923,455.147644 610.201355,463.166779 
	C607.052063,485.466492 592.018066,500.028259 569.566528,501.613739 
	C554.504211,502.677368 539.306030,501.816101 523.835022,501.816101 
	C518.196045,466.155853 512.559448,430.510590 507.137207,394.307800 
	C507.595581,393.331421 507.839661,392.912598 508.083740,392.493805 
	C509.753143,392.451202 511.422516,392.408600 513.689270,392.774109 
	C514.891357,393.399658 515.495544,393.805542 516.100830,393.807129 
	C531.119202,393.846466 546.137817,393.867584 561.155823,393.791046 
	C562.134399,393.786072 563.108826,392.973419 564.085205,392.536469 
z"/>
<path fill="#1B1B1B" opacity="1.000000" stroke="none" 
	d="
M157.062241,392.676056 
	C164.341400,392.566040 171.620453,392.371063 178.899734,392.361847 
	C201.280502,392.333527 223.661346,392.376282 246.586685,392.750488 
	C247.440567,392.974121 247.749924,392.838684 248.059280,392.703217 
	C248.300629,393.686401 248.880066,394.722900 248.734589,395.645050 
	C243.162811,430.965240 237.524612,466.274963 231.857483,501.823059 
	C206.401566,501.823059 180.987244,501.823059 155.547531,501.823059 
	C155.382156,501.586761 155.039551,501.325836 155.039703,501.065063 
	C155.061203,465.112518 155.107712,429.159943 155.662659,393.189331 
	C156.468948,393.006165 156.765594,392.841125 157.062241,392.676056 
z"/>
<path fill="#1D1D1D" opacity="1.000000" stroke="none" 
	d="
M376.000000,172.900558 
	C366.051636,172.900558 356.603271,172.900558 346.782227,172.900558 
	C350.072693,152.170853 353.274567,131.999039 356.522980,111.534164 
	C370.621460,111.534164 384.525085,111.534164 399.178345,111.534164 
	C402.368927,131.536758 405.601532,151.802795 408.966797,172.900558 
	C397.944275,172.900558 387.222137,172.900558 376.000000,172.900558 
z"/>
<path fill="#0F0F0F" opacity="1.000000" stroke="none" 
	d="
M469.974365,558.550293 
	C411.608063,558.997559 353.246979,559.006653 294.885895,558.956482 
	C293.011719,558.954834 291.138031,558.346252 289.140259,557.650391 
	C290.676544,557.210266 292.336700,557.079590 293.996857,557.079285 
	C350.827789,557.069519 407.658752,557.062561 464.489655,557.116333 
	C466.319916,557.118042 468.149597,557.759705 469.974365,558.550293 
z"/>

<path fill="#0F0F0F" opacity="1.000000" stroke="none" 
	d="
M321.107422,336.406555 
	C356.623260,336.004883 392.122620,336.028290 427.621704,335.928802 
	C429.589417,335.923279 431.554260,334.898895 433.859192,334.128296 
	C434.419586,334.970062 434.641266,336.032318 434.936310,337.446198 
	C427.186829,337.446198 419.906433,337.446686 412.626007,337.446106 
	C383.867371,337.443787 355.108673,337.452148 326.350098,337.411438 
	C324.596771,337.408966 322.843933,337.016449 321.107422,336.406555 
z"/>

<path fill="#0F0F0F" opacity="1.000000" stroke="none" 
	d="
M432.624634,620.650879 
	C432.419556,620.351929 432.315582,619.722046 432.464722,619.014526 
	C432.720459,619.397888 432.723114,619.858948 432.624634,620.650879 
z"/>
<path fill="#0F0F0F" opacity="1.000000" stroke="none" 
	d="
M416.744446,228.050659 
	C416.700745,228.245743 416.430634,228.306580 416.084961,228.209930 
	C416.178955,228.007080 416.348511,227.961731 416.744446,228.050659 
z"/>
<path fill="#0F0F0F" opacity="1.000000" stroke="none" 
	d="
M274.981445,228.688721 
	C274.613861,228.897369 274.371277,228.720764 274.098999,228.249420 
	C274.352692,228.156464 274.698425,228.272720 274.981445,228.688721 
z"/>
<path fill="#0F0F0F" opacity="1.000000" stroke="none" 
	d="
M481.649017,228.030304 
	C481.769836,228.319046 481.549530,228.572556 481.093994,228.928070 
	C481.008484,228.685089 481.158173,228.340088 481.649017,228.030304 
z"/>
<path fill="#0F0F0F" opacity="1.000000" stroke="none" 
	d="
M258.517212,332.793762 
	C258.276978,332.729736 258.190399,332.388458 258.353210,331.966644 
	C258.625397,332.096222 258.648163,332.306366 258.517212,332.793762 
z"/>
<path fill="#0F0F0F" opacity="1.000000" stroke="none" 
	d="
M247.776962,392.585541 
	C247.749924,392.838684 247.440567,392.974121 247.029388,392.903442 
	C247.116608,392.620819 247.305634,392.544342 247.776962,392.585541 
z"/>
<path fill="#0F0F0F" opacity="1.000000" stroke="none" 
	d="
M156.770233,392.563232 
	C156.765594,392.841125 156.468948,393.006165 156.059692,392.976532 
	C156.124130,392.671326 156.301193,392.560852 156.770233,392.563232 
z"/>
<path fill="#0F0F0F" opacity="1.000000" stroke="none" 
	d="
M257.292145,337.181091 
	C257.141846,336.868744 257.313690,336.574829 257.705780,336.147522 
	C257.822113,336.409241 257.718170,336.804382 257.292145,337.181091 
z"/>
<path fill="#0F0F0F" opacity="1.000000" stroke="none" 
	d="
M469.462708,563.444946 
	C469.519257,563.409668 469.406158,563.480164 469.462708,563.444946 
z"/>
</svg>